HIERARCHY
ROOT reference
{
  OFFSET -65.3212 -1.93545 -120.338
  CHANNELS 6 Xposition Yposition Zposition Zrotation Xrotation Yrotation
  JOINT Hips
  {
    OFFSET 0 78.7191 0
    CHANNELS 3 Zrotation Xrotation Yrotation
    JOINT Chest
    {
      OFFSET 0 8.7983 -4.7612
      CHANNELS 3 Zrotation Xrotation Yrotation
      JOINT Chest2
      {
        OFFSET 0 8.0291 0.4195
        CHANNELS 3 Zrotation Xrotation Yrotation
        JOINT Chest3
        {
          OFFSET 0 9.9351 -2.2114
          CHANNELS 3 Zrotation Xrotation Yrotation
          JOINT Neck
          {
            OFFSET 0 22.3885 -0.4656
            CHANNELS 3 Zrotation Xrotation Yrotation
            JOINT Head
            {
              OFFSET -0.0001 12.643 3.4389
              CHANNELS 3 Zrotation Xrotation Yrotation
              End Site
              {
                OFFSET 0.0001 17.6655 0.5274
              }
            }
          }
          JOINT LeftCollar
          {
            OFFSET 2.2603 21.606 7.4023
            CHANNELS 3 Zrotation Xrotation Yrotation
            JOINT LeftShoulder
            {
              OFFSET 13.5163 -1.1332 -5.0146
              CHANNELS 3 Zrotation Xrotation Yrotation
              JOINT LeftElbow
              {
                OFFSET -0.0995 -28.05 -0.2431
                CHANNELS 3 Zrotation Xrotation Yrotation
                JOINT LeftWrist
                {
                  OFFSET 0.0679 -23.3996 -0.1402
                  CHANNELS 3 Zrotation Xrotation Yrotation
                  JOINT LeftFinger1
                  {
                    OFFSET 0.7932 -9.069 2.5189
                    CHANNELS 3 Zrotation Xrotation Yrotation
                    JOINT LeftFinger11
                    {
                      OFFSET -0.8272 -3.3923 0.5977
                      CHANNELS 3 Zrotation Xrotation Yrotation
                      JOINT LeftFinger12
                      {
                        OFFSET -0.5649 -2.3158 0.4082
                        CHANNELS 3 Zrotation Xrotation Yrotation
                        End Site
                        {
                          OFFSET -0.4919 -1.6479 0.2673
                        }
                      }
                    }
                  }
                  JOINT LeftFinger2
                  {
                    OFFSET 0.9159 -9.2044 0.2193
                    CHANNELS 3 Zrotation Xrotation Yrotation
                    JOINT LeftFinger21
                    {
                      OFFSET 0.0117 -4.1944 -0.0248
                      CHANNELS 3 Zrotation Xrotation Yrotation
                      JOINT LeftFinger22
                      {
                        OFFSET 0.0071 -2.3249 -0.0142
                        CHANNELS 3 Zrotation Xrotation Yrotation
                        End Site
                        {
                          OFFSET -0.1475 -2.0882 0.0028
                        }
                      }
                    }
                  }
                  JOINT LeftFinger3
                  {
                    OFFSET 0.6113 -8.7231 -2.0637
                    CHANNELS 3 Zrotation Xrotation Yrotation
                    JOINT LeftFinger31
                    {
                      OFFSET -0.1927 -3.8059 -0.2383
                      CHANNELS 3 Zrotation Xrotation Yrotation
                      JOINT LeftFinger32
                      {
                        OFFSET -0.1091 -2.1688 -0.1362
                        CHANNELS 3 Zrotation Xrotation Yrotation
                        End Site
                        {
                          OFFSET -0.2358 -1.9176 -0.0906
                        }
                      }
                    }
                  }
                  JOINT LeftFinger4
                  {
                    OFFSET -0.6151 -8.0947 -3.5641
                    CHANNELS 3 Zrotation Xrotation Yrotation
                    JOINT LeftFinger41
                    {
                      OFFSET -0.4882 -2.341 -0.6462
                      CHANNELS 3 Zrotation Xrotation Yrotation
                      JOINT LeftFinger42
                      {
                        OFFSET -0.3575 -1.7167 -0.4742
                        CHANNELS 3 Zrotation Xrotation Yrotation
                        End Site
                        {
                          OFFSET -0.4187 -1.5237 -0.3496
                        }
                      }
                    }
                  }
                  JOINT LeftFinger0
                  {
                    OFFSET -1.42 -1.8761 1.4223
                    CHANNELS 3 Zrotation Xrotation Yrotation
                    JOINT LeftFinger01
                    {
                      OFFSET -1.1471 -3.4929 2.6334
                      CHANNELS 3 Zrotation Xrotation Yrotation
                      JOINT LeftFinger02
                      {
                        OFFSET -0.823 -2.3 1.6571
                        CHANNELS 3 Zrotation Xrotation Yrotation
                        End Site
                        {
                          OFFSET -0.5822 -1.6914 1.1582
                        }
                      }
                    }
                  }
                }
              }
            }
          }
          JOINT RightCollar
          {
            OFFSET -2.2603 21.606 7.4023
            CHANNELS 3 Zrotation Xrotation Yrotation
            JOINT RightShoulder
            {
              OFFSET -13.5187 -1.1334 -5.0155
              CHANNELS 3 Zrotation Xrotation Yrotation
              JOINT RightElbow
              {
                OFFSET 0.0994 -28.0499 -0.2431
                CHANNELS 3 Zrotation Xrotation Yrotation
                JOINT RightWrist
                {
                  OFFSET -0.0679 -23.3996 -0.1402
                  CHANNELS 3 Zrotation Xrotation Yrotation
                  JOINT RightFinger1
                  {
                    OFFSET -0.7932 -9.0691 2.5189
                    CHANNELS 3 Zrotation Xrotation Yrotation
                    JOINT RightFinger11
                    {
                      OFFSET 0.8272 -3.3923 0.5977
                      CHANNELS 3 Zrotation Xrotation Yrotation
                      JOINT RightFinger12
                      {
                        OFFSET 0.565 -2.3158 0.4082
                        CHANNELS 3 Zrotation Xrotation Yrotation
                        End Site
                        {
                          OFFSET 0.4919 -1.6479 0.2673
                        }
                      }
                    }
                  }
                  JOINT RightFinger2
                  {
                    OFFSET -0.916 -9.2044 0.2193
                    CHANNELS 3 Zrotation Xrotation Yrotation
                    JOINT RightFinger21
                    {
                      OFFSET -0.0117 -4.1944 -0.0248
                      CHANNELS 3 Zrotation Xrotation Yrotation
                      JOINT RightFinger22
                      {
                        OFFSET -0.0071 -2.3249 -0.0142
                        CHANNELS 3 Zrotation Xrotation Yrotation
                        End Site
                        {
                          OFFSET 0.1475 -2.0882 0.0028
                        }
                      }
                    }
                  }
                  JOINT RightFinger3
                  {
                    OFFSET -0.6113 -8.7231 -2.0637
                    CHANNELS 3 Zrotation Xrotation Yrotation
                    JOINT RightFinger31
                    {
                      OFFSET 0.1927 -3.8059 -0.2383
                      CHANNELS 3 Zrotation Xrotation Yrotation
                      JOINT RightFinger32
                      {
                        OFFSET 0.1091 -2.1688 -0.1362
                        CHANNELS 3 Zrotation Xrotation Yrotation
                        End Site
                        {
                          OFFSET 0.2358 -1.9176 -0.0906
                        }
                      }
                    }
                  }
                  JOINT RightFinger4
                  {
                    OFFSET 0.6151 -8.0947 -3.564
                    CHANNELS 3 Zrotation Xrotation Yrotation
                    JOINT RightFinger41
                    {
                      OFFSET 0.4882 -2.341 -0.6462
                      CHANNELS 3 Zrotation Xrotation Yrotation
                      JOINT RightFinger42
                      {
                        OFFSET 0.3574 -1.7166 -0.4742
                        CHANNELS 3 Zrotation Xrotation Yrotation
                        End Site
                        {
                          OFFSET 0.4187 -1.5237 -0.3496
                        }
                      }
                    }
                  }
                  JOINT RightFinger0
                  {
                    OFFSET 1.4199 -1.8761 1.4221
                    CHANNELS 3 Zrotation Xrotation Yrotation
                    JOINT RightFinger01
                    {
                      OFFSET 1.1472 -3.4929 2.6336
                      CHANNELS 3 Zrotation Xrotation Yrotation
                      JOINT RightFinger02
                      {
                        OFFSET 0.8229 -2.3 1.6571
                        CHANNELS 3 Zrotation Xrotation Yrotation
                        End Site
                        {
                          OFFSET 0.5822 -1.6914 1.1582
                        }
                      }
                    }
                  }
                }
              }
            }
          }
        }
      }
    }
    JOINT RightHip
    {
      OFFSET -9.412 3.9771 -0.7758
      CHANNELS 3 Zrotation Xrotation Yrotation
      JOINT RightKnee
      {
        OFFSET -0.7531 -40.938 0
        CHANNELS 3 Zrotation Xrotation Yrotation
        JOINT RightAnkle
        {
          OFFSET 0 -40.1986 0
          CHANNELS 3 Zrotation Xrotation Yrotation
          JOINT RightToe
          {
            OFFSET 0 -4.4182 9.239
            CHANNELS 3 Zrotation Xrotation Yrotation
            End Site
            {
              OFFSET 0 0 6.1981
            }
          }
        }
      }
    }
    JOINT LeftHip
    {
      OFFSET 9.4119 3.9773 -0.7758
      CHANNELS 3 Zrotation Xrotation Yrotation
      JOINT LeftKnee
      {
        OFFSET 0.7532 -40.9383 0
        CHANNELS 3 Zrotation Xrotation Yrotation
        JOINT LeftAnkle
        {
          OFFSET 0 -40.1986 0
          CHANNELS 3 Zrotation Xrotation Yrotation
          JOINT LeftToe
          {
            OFFSET 0 -4.4182 9.239
            CHANNELS 3 Zrotation Xrotation Yrotation
            End Site
            {
              OFFSET 0 0 6.1981
            }
          }
        }
      }
    }
  }
}
MOTION
Frames:	4
Frame Time:	0.0333333
2.63445 -2.87148 -0.936841 0 0 -0 -8.48028 -11.0483 7.46537 2.51477 2.55513 -1.78086 5.1153 5.0283 -3.67768 5.11532 5.0283 -3.67769 -0.473191 31.0815 -12.1034 21.7717 9.1457 -10.4349 36.3759 -2.95417 -17.1691 1.5164 -34.4074 -1.39176 177.237 -40.8898 -108.055 -10.2791 -25.1291 -0.351089 10.5316 -6.06387 -1.3358 -0.203691 -2.61337 -1.07444 7.46716 -4.58532 0.698881 9.91595 -6.36468 1.38717 -0.671519 -3.87906 0.582393 9.64874 -5.876 1.44079 10.8598 -5.92396 1.91607 -0.680457 -4.42166 1.27932 9.65653 -6.42016 1.81047 10.999 -5.08915 2.33459 -0.105843 -4.99969 3.78071 9.47839 -6.16564 2.06795 6.88314 4.84935 -4.18146 -2.76404 -0.176323 0.333223 -4.03952 -5.44909 0.935158 -19.6127 -3.86323 12.4515 -18.1125 -19.823 -10.4148 -166.818 -36.3546 94.4271 18.7644 -8.92208 26.6898 -6.1188 -1.79268 2.46604 -0.0234961 -0.190117 0.215992 -2.97017 -1.01649 0.0215891 -5.75356 -2.24205 -0.117717 0.140618 -0.723307 -0.109633 -5.40122 -1.82698 -0.214784 -6.68927 -1.41204 -0.373191 0.159699 -0.953902 -0.494382 -5.62133 -2.14267 -0.422088 -6.67338 -0.617862 -0.631963 -0.226996 -1.04178 -2.07726 -5.38658 -1.98264 -0.556308 -6.67563 8.38551 6.1854 0.772715 -0.692711 -0.80129 1.44811 -3.42221 -1.02505 8.6665 0.0178236 6.0046 2.02254 18.9605 -1.58854 3.67277 -10.552 -11.3404 0.138981 0.964942 -0.0563739 1.82898 -9.6291 -26.1762 -0.556575 37.7354 -0.318896 -0.555188 -16.7922 2.74654 0.134365 -1.00438 0.00107855 
2.94149 -4.2228 -0.721251 0 0 -0 -8.62384 -11.6734 4.8661 2.87539 2.88388 -1.62809 5.84255 5.68108 -3.40548 5.84257 5.6811 -3.40548 -0.458786 30.6084 -11.7817 21.7178 8.79112 -11.1866 37.1035 -2.94223 -18.2375 0.671257 -33.5015 -1.86276 179.682 -41.4241 -106.422 -11.4068 -25.8145 3.14419 10.5212 -5.20732 -1.80767 -0.194553 -2.51185 -1.02604 7.24166 -4.44923 0.669156 9.53516 -6.04181 0.883855 -0.655114 -3.78027 0.576497 9.4187 -5.74068 1.39533 10.5253 -5.93513 1.94351 -0.664593 -4.31012 1.2576 9.43512 -6.27886 1.75745 10.53 -5.29635 2.46061 -0.105172 -4.89253 3.7152 9.26243 -6.03148 2.01024 7.03743 5.02524 -4.2335 -2.76409 -0.17652 0.333294 -4.03953 -5.44883 0.935165 -18.7125 -3.66049 13.0097 -16.3557 -20.0145 -8.82869 -168.154 -37.357 93.3219 19.3537 -11.4489 24.9992 -5.90093 -0.961459 2.92281 -0.0189398 -0.141537 0.159508 -2.71774 -0.930043 0.02182 -5.28763 -2.00762 0.329864 0.133622 -0.683352 -0.105287 -5.15061 -1.74279 -0.201035 -6.37011 -1.49127 -0.446136 0.152397 -0.903592 -0.471163 -5.37535 -2.05003 -0.399283 -6.26503 -0.921092 -0.817254 -0.218669 -1.00084 -2.00667 -5.13082 -1.89113 -0.528135 -6.79027 8.58463 6.26817 0.772671 -0.692677 -0.801249 1.44812 -3.42222 -1.02507 8.54955 -4.03162 8.5644 3.67562 28.5999 -2.89305 3.68978 -15.1991 -9.90782 -0.0758367 -0.528862 0.0301014 -0.810725 -10.1683 -35.0439 -1.12032 43.3088 -0.198575 -2.24641 -20.1202 -1.72152 0.523752 -3.91034 0.0178478 
3.23322 -5.3601 -0.550998 0 0 -0 -9.14676 -11.9325 2.43773 3.34687 3.07189 -1.45679 6.78524 6.05226 -3.09748 6.78525 6.05227 -3.09749 -0.487065 30.9553 -12.3802 21.8995 8.56153 -11.9212 37.4423 -2.90973 -20.0324 0.559942 -33.4518 -2.2045 -178.57 -43.319 -105.684 -14.1918 -26.2543 8.03447 10.5076 -4.38459 -2.27452 -0.185446 -2.40999 -0.978083 7.01626 -4.31301 0.639966 9.16261 -5.73326 0.398126 -0.638782 -3.68152 0.570128 9.20809 -5.61646 1.35416 10.2029 -5.94523 1.97215 -0.649616 -4.20485 1.23661 9.21386 -6.13736 1.70499 10.075 -5.49801 2.58342 -0.104424 -4.78567 3.64925 9.04667 -5.89698 1.953 7.19191 5.20085 -4.28597 -2.76411 -0.176468 0.333347 -4.03953 -5.44886 0.935186 -16.8457 -3.40841 13.8853 -15.7886 -19.8555 -8.02876 -171.643 -38.6178 91.2995 20.9489 -12.3927 21.6921 -5.69054 -0.153929 3.36941 -0.0143711 -0.092731 0.103222 -2.48003 -0.848648 0.0216656 -4.83413 -1.77935 0.763441 0.127041 -0.64575 -0.101003 -4.90005 -1.65857 -0.187629 -6.06247 -1.56756 -0.517435 0.145486 -0.856214 -0.449006 -5.12941 -1.9573 -0.376869 -5.87364 -1.21268 -0.997445 -0.210734 -0.962457 -1.9399 -4.90982 -1.80962 -0.499543 -6.898 8.77272 6.34693 0.772693 -0.692716 -0.801234 1.44812 -3.4222 -1.02502 8.23539 -6.70131 9.6968 5.92467 34.4481 -4.37958 3.44286 -17.8837 -7.77745 -0.288511 -2.02298 0.111021 -3.24374 -9.83009 -42.7121 -1.24153 47.3982 -0.109642 -3.66737 -22.9183 -4.35695 0.77755 -5.79419 0.0392867 
3.4492 -6.29427 -0.552122 0 0 -0 -9.95048 -11.4863 -0.19463 3.82933 3.08421 -1.24582 7.74142 6.07736 -2.70118 7.74143 6.07737 -2.70119 -0.507109 31.5063 -12.8148 22.3791 8.2051 -12.2747 38.1374 -2.88697 -21.9167 1.00494 -33.8223 -2.56369 -177.705 -45.4573 -104.882 -13.5963 -27.3874 15.6599 10.4964 -3.59851 -2.7263 -0.177391 -2.31806 -0.935282 6.81973 -4.19405 0.614929 8.80611 -5.43751 -0.0651359 -0.624036 -3.59255 0.564005 8.99767 -5.49218 1.31348 9.89479 -5.95475 2.00026 -0.634808 -4.09969 1.21521 9.01372 -6.009 1.65795 9.64061 -5.69116 2.7012 -0.103777 -4.68955 3.58949 8.8311 -5.76234 1.8963 7.33068 5.35941 -4.33473 -2.76404 -0.176528 0.33319 -4.03954 -5.44883 0.935193 -15.2071 -3.21351 14.4714 -15.2422 -19.5181 -6.714 -174.906 -39.0507 87.018 20.1589 -14.7958 19.4864 -5.49058 0.618134 3.79914 -0.0102296 -0.0483163 0.052453 -2.24229 -0.767254 0.0212036 -4.39967 -1.56062 1.1769 0.12047 -0.608177 -0.0965711 -4.67427 -1.5826 -0.175887 -5.76841 -1.64053 -0.585969 0.138574 -0.808881 -0.426631 -4.90677 -1.8732 -0.356877 -5.50056 -1.49192 -1.1696 -0.202798 -0.924469 -1.87304 -4.68889 -1.72799 -0.471241 -7.00601 8.96067 6.42616 0.772641 -0.692736 -0.801175 1.44812 -3.42224 -1.02498 7.59299 -9.15321 9.4024 8.34707 38.1647 -5.81445 3.03093 -19.2471 -4.46985 -0.352813 -2.47773 0.134607 -4.77006 -9.96128 -46.8583 -1.23884 50.6602 -0.139258 -4.32839 -25.1801 -4.80075 0.864737 -6.43832 0.0485726 
